HIERARCHY
ROOT hip
{
  OFFSET 0.00112043 5.09927 -9.65472
  CHANNELS 6 Xposition Yposition Zposition Zrotation Xrotation Yrotation
  JOINT abdomen
  {
    OFFSET 0 -1.186 -1.5018
    CHANNELS 3 Zrotation Xrotation Yrotation
    JOINT abdomen2
    {
      OFFSET 0 9.964 0.2134
      CHANNELS 3 Zrotation Xrotation Yrotation
      JOINT chest
      {
        OFFSET 0 13.134 -3.2573
        CHANNELS 3 Zrotation Xrotation Yrotation
        JOINT neck
        {
          OFFSET 0 20.686 -1.6905
          CHANNELS 3 Zrotation Xrotation Yrotation
          JOINT head
          {
            OFFSET 0 7.238 -0.1237
            CHANNELS 3 Zrotation Xrotation Yrotation
            End Site
            {
              OFFSET 0 0 0
            }
          }
        }
        JOINT lCollar
        {
          OFFSET 1.7069 20.075 5.0056
          CHANNELS 3 Zrotation Xrotation Yrotation
          JOINT lShldr
          {
            OFFSET 13.6458 -0.047 -4.849
            CHANNELS 3 Zrotation Xrotation Yrotation
            JOINT lForeArm
            {
              OFFSET 28.3255 -0.9759 2.2888
              CHANNELS 3 Zrotation Xrotation Yrotation
              JOINT lHand
              {
                OFFSET 22.1583 -0.53 10.8316
                CHANNELS 3 Zrotation Xrotation Yrotation
                JOINT lThumb1
                {
                  OFFSET 0.786 0.112 2.5817
                  CHANNELS 3 Zrotation Xrotation Yrotation
                  JOINT lThumb2
                  {
                    OFFSET 0.3601 -0.878 4.2331
                    CHANNELS 3 Zrotation Xrotation Yrotation
                    JOINT lThumb2_End
                    {
                      OFFSET 1.8127 -1.216 2.2227
                      CHANNELS 3 Zrotation Xrotation Yrotation
                      End Site
                      {
                        OFFSET 0.0181 -0.0122 0.0222
                      }
                    }
                  }
                }
                JOINT lCarpal1
                {
                  OFFSET 0.9571 1.114 1.7695
                  CHANNELS 3 Zrotation Xrotation Yrotation
                  JOINT lIndex1
                  {
                    OFFSET 4.1246 0.487 4.1451
                    CHANNELS 3 Zrotation Xrotation Yrotation
                    JOINT lIndex2
                    {
                      OFFSET 3.4052 -1.454 2.7682
                      CHANNELS 3 Zrotation Xrotation Yrotation
                      JOINT lIndex2_End
                      {
                        OFFSET 1.4531 -1.795 1.2713
                        CHANNELS 3 Zrotation Xrotation Yrotation
                        End Site
                        {
                          OFFSET 0.0145 -0.0179 0.0127
                        }
                      }
                    }
                  }
                  JOINT lMid1
                  {
                    OFFSET 5.6954 0.21 2.1184
                    CHANNELS 3 Zrotation Xrotation Yrotation
                    JOINT lMid2
                    {
                      OFFSET 3.9766 -1.54 2.3863
                      CHANNELS 3 Zrotation Xrotation Yrotation
                      JOINT lMid2_End
                      {
                        OFFSET 1.4042 -1.926 1.125
                        CHANNELS 3 Zrotation Xrotation Yrotation
                        End Site
                        {
                          OFFSET 0.014 -0.0193 0.0113
                        }
                      }
                    }
                  }
                }
                JOINT lCarpal2
                {
                  OFFSET 2.0956 0.66 -0.3894
                  CHANNELS 3 Zrotation Xrotation Yrotation
                  JOINT lRing1
                  {
                    OFFSET 5.0395 -0.09 2.4971
                    CHANNELS 3 Zrotation Xrotation Yrotation
                    JOINT lRing2
                    {
                      OFFSET 3.7921 -1.552 1.4806
                      CHANNELS 3 Zrotation Xrotation Yrotation
                      JOINT lRing2_End
                      {
                        OFFSET 1.4655 -1.808 0.9609
                        CHANNELS 3 Zrotation Xrotation Yrotation
                        End Site
                        {
                          OFFSET 0.0147 -0.0181 0.0096
                        }
                      }
                    }
                  }
                  JOINT lPinky1
                  {
                    OFFSET 4.9141 -1.269 0.3591
                    CHANNELS 3 Zrotation Xrotation Yrotation
                    JOINT lPinky2
                    {
                      OFFSET 3.1477 -1.685 0.8462
                      CHANNELS 3 Zrotation Xrotation Yrotation
                      JOINT lPinky2_End
                      {
                        OFFSET 0.8055 -1.585 0.7955
                        CHANNELS 3 Zrotation Xrotation Yrotation
                        End Site
                        {
                          OFFSET 0.0081 -0.0158 0.008
                        }
                      }
                    }
                  }
                }
              }
            }
          }
        }
        JOINT rCollar
        {
          OFFSET -1.7069 20.075 5.0056
          CHANNELS 3 Zrotation Xrotation Yrotation
          JOINT rShldr
          {
            OFFSET -13.6458 -0.047 -4.849
            CHANNELS 3 Zrotation Xrotation Yrotation
            JOINT rForeArm
            {
              OFFSET -28.3255 -0.9759 2.2888
              CHANNELS 3 Zrotation Xrotation Yrotation
              JOINT rHand
              {
                OFFSET -22.1583 -0.53 10.8316
                CHANNELS 3 Zrotation Xrotation Yrotation
                JOINT rThumb1
                {
                  OFFSET -0.786 0.112 2.5817
                  CHANNELS 3 Zrotation Xrotation Yrotation
                  JOINT rThumb2
                  {
                    OFFSET -0.3601 -0.878 4.2331
                    CHANNELS 3 Zrotation Xrotation Yrotation
                    JOINT rThumb2_End
                    {
                      OFFSET -1.8127 -1.216 2.2227
                      CHANNELS 3 Zrotation Xrotation Yrotation
                      End Site
                      {
                        OFFSET -0.0181 -0.0122 0.0222
                      }
                    }
                  }
                }
                JOINT rCarpal1
                {
                  OFFSET -0.9571 1.114 1.7695
                  CHANNELS 3 Zrotation Xrotation Yrotation
                  JOINT rIndex1
                  {
                    OFFSET -4.1246 0.487 4.1451
                    CHANNELS 3 Zrotation Xrotation Yrotation
                    JOINT rIndex2
                    {
                      OFFSET -3.4052 -1.454 2.7682
                      CHANNELS 3 Zrotation Xrotation Yrotation
                      JOINT rIndex2_End
                      {
                        OFFSET -1.4531 -1.795 1.2713
                        CHANNELS 3 Zrotation Xrotation Yrotation
                        End Site
                        {
                          OFFSET -0.0145 -0.018 0.0127
                        }
                      }
                    }
                  }
                  JOINT rMid1
                  {
                    OFFSET -5.6954 0.21 2.1184
                    CHANNELS 3 Zrotation Xrotation Yrotation
                    JOINT rMid2
                    {
                      OFFSET -3.9766 -1.54 2.3863
                      CHANNELS 3 Zrotation Xrotation Yrotation
                      JOINT rMid2_End
                      {
                        OFFSET -1.4042 -1.926 1.125
                        CHANNELS 3 Zrotation Xrotation Yrotation
                        End Site
                        {
                          OFFSET -0.014 -0.0193 0.0113
                        }
                      }
                    }
                  }
                }
                JOINT rCarpal2
                {
                  OFFSET -2.0956 0.66 -0.3894
                  CHANNELS 3 Zrotation Xrotation Yrotation
                  JOINT rRing1
                  {
                    OFFSET -5.0395 -0.09 2.4971
                    CHANNELS 3 Zrotation Xrotation Yrotation
                    JOINT rRing2
                    {
                      OFFSET -3.7921 -1.552 1.4806
                      CHANNELS 3 Zrotation Xrotation Yrotation
                      JOINT rRing2_End
                      {
                        OFFSET -1.4655 -1.808 0.9609
                        CHANNELS 3 Zrotation Xrotation Yrotation
                        End Site
                        {
                          OFFSET -0.0147 -0.0181 0.0096
                        }
                      }
                    }
                  }
                  JOINT rPinky1
                  {
                    OFFSET -4.9141 -1.269 0.3592
                    CHANNELS 3 Zrotation Xrotation Yrotation
                    JOINT rPinky2
                    {
                      OFFSET -3.1477 -1.685 0.8462
                      CHANNELS 3 Zrotation Xrotation Yrotation
                      JOINT rPinky2_End
                      {
                        OFFSET -0.8055 -1.585 0.7955
                        CHANNELS 3 Zrotation Xrotation Yrotation
                        End Site
                        {
                          OFFSET -0.0081 -0.0158 0.008
                        }
                      }
                    }
                  }
                }
              }
            }
          }
        }
      }
    }
  }
  JOINT lThigh
  {
    OFFSET 8.367 -8.2066 0.5982
    CHANNELS 3 Zrotation Xrotation Yrotation
    JOINT lShin
    {
      OFFSET 2.1923 -43.463 -0.4932
      CHANNELS 3 Zrotation Xrotation Yrotation
      JOINT lFoot
      {
        OFFSET 0.7333 -45.8593 -2.6451
        CHANNELS 3 Zrotation Xrotation Yrotation
        End Site
        {
          OFFSET 2.6618 -4.2699 12.3931
        }
      }
    }
  }
  JOINT rThigh
  {
    OFFSET -8.367 -8.2066 0.5982
    CHANNELS 3 Zrotation Xrotation Yrotation
    JOINT rShin
    {
      OFFSET -2.1923 -43.463 -0.4931
      CHANNELS 3 Zrotation Xrotation Yrotation
      JOINT rFoot
      {
        OFFSET -0.7333 -45.8593 -2.6451
        CHANNELS 3 Zrotation Xrotation Yrotation
        End Site
        {
          OFFSET -2.6618 -4.2699 12.3931
        }
      }
    }
  }
}
MOTION
Frames:	6
Frame Time:	0.0333333
0 91.7903 2.51682 0 0 -0 0 0 -0 0 0 -0 0 0 -0 0 0 -0 0 0 -0 0 0 -0 1.66051 0.0835086 5.75766 -0.0175111 0.895433 15.7816 7.95139e-016 -1.98785e-016 -0 5.46658e-016 -3.97569e-016 -0 5.96354e-016 0 -0 3.97569e-016 1.98785e-016 9.54166e-015 1.49089e-016 -3.97569e-016 -0 6.4605e-016 0 3.18055e-015 5.96354e-016 0 3.18055e-015 8.94531e-016 -1.98785e-016 6.36111e-015 6.4605e-016 0 3.18055e-015 5.96354e-016 0 3.18055e-015 8.94531e-016 -1.98785e-016 6.36111e-015 1.49089e-016 -3.97569e-016 -0 6.4605e-016 0 3.18055e-015 5.96354e-016 0 3.18055e-015 8.94531e-016 -1.98785e-016 6.36111e-015 6.4605e-016 0 3.18055e-015 5.96354e-016 0 3.18055e-015 8.94531e-016 -1.98785e-016 6.36111e-015 0 0 -0 -1.4496 0.0636048 -5.0245 -1.74811 1.20616 -16.8394 -1.19271e-015 1.98785e-016 -3.18055e-015 -3.97569e-016 1.98785e-016 -3.18055e-015 -2.98177e-016 1.98785e-016 -3.18055e-015 -2.98177e-016 3.97569e-016 -0 4.96962e-016 0 -6.36111e-015 -9.93923e-017 3.97569e-016 -0 -8.94531e-016 5.96354e-016 -0 -3.97569e-016 3.97569e-016 -0 -9.93923e-017 3.97569e-016 -0 -8.94531e-016 5.96354e-016 -0 -3.97569e-016 3.97569e-016 -0 4.96962e-016 0 -6.36111e-015 -9.93923e-017 3.97569e-016 -0 -8.94531e-016 5.96354e-016 -0 -3.97569e-016 3.97569e-016 -0 -9.93923e-017 3.97569e-016 -0 -8.94531e-016 5.96354e-016 -0 -3.97569e-016 3.97569e-016 -0 -4.66111 -0.998717 0.12318 0.00986924 1.54847 0.176523 4.65186 -0.572283 -0.254274 4.66111 -0.998765 -0.123176 -0.00986867 1.54869 -0.176537 -4.65186 -0.572453 0.25427 
0.694218 38.5837 7.13264 0 30.9992 -0 0.176022 0.218563 -0.0631917 0.352288 0.436984 -0.127055 0.352288 0.436986 -0.127055 -0.000331327 -0.000301627 0.000116439 -6.60292e-008 1.05019e-010 3.65311e-008 -29.828 -47.3234 -21.5241 -12.817 -1.44401 29.9912 -56.827 -6.9931 2.70589 0.365852 2.27995 -8.10454 1.59028e-015 1.59028e-014 3.18055e-015 1.59028e-015 1.59028e-014 4.77083e-015 2.38542e-015 1.59028e-014 3.18055e-015 7.95139e-016 6.36111e-015 3.18055e-015 2.38542e-015 0 4.77083e-015 1.59028e-015 1.59028e-014 4.77083e-015 7.95139e-016 1.90833e-014 6.36111e-015 2.38542e-015 0 4.77083e-015 1.59028e-015 1.59028e-014 4.77083e-015 7.95139e-016 1.90833e-014 6.36111e-015 7.95139e-016 6.36111e-015 3.18055e-015 2.38542e-015 0 4.77083e-015 1.59028e-015 1.59028e-014 4.77083e-015 7.95139e-016 1.90833e-014 6.36111e-015 2.38542e-015 0 4.77083e-015 1.59028e-015 1.59028e-014 4.77083e-015 7.95139e-016 1.90833e-014 6.36111e-015 30.3416 -47.4712 22.149 13.391 -1.68446 -29.2638 54.4731 -7.84813 -3.84461 -0.307887 2.47629 7.95517 2.15813e-007 -6.89736e-006 2.45581e-006 9.28526e-007 -1.08688e-006 3.49569e-006 4.1031e-007 1.1809e-006 1.13389e-006 7.95139e-016 3.18055e-015 -0 2.15813e-007 -6.89736e-006 2.45581e-006 9.28526e-007 -1.08688e-006 3.49569e-006 4.1031e-007 1.1809e-006 1.13389e-006 2.15813e-007 -6.89736e-006 2.45581e-006 9.28526e-007 -1.08688e-006 3.49569e-006 4.1031e-007 1.1809e-006 1.13389e-006 7.95139e-016 3.18055e-015 -0 2.15813e-007 -6.89736e-006 2.45581e-006 9.28526e-007 -1.08688e-006 3.49569e-006 4.1031e-007 1.1809e-006 1.13389e-006 2.15813e-007 -6.89736e-006 2.45581e-006 9.28526e-007 -1.08688e-006 3.49569e-006 4.1031e-007 1.1809e-006 1.13389e-006 142.508 -39.2246 160.724 128.601 69.6574 -128.568 5.05592 -3.22361 12.8672 -142.509 -39.2051 -160.751 -128.549 69.6202 128.498 -5.05296 -3.21895 -12.8772 
0.694229 38.2746 7.27625 0 30.0575 -0 0.176643 -0.0698904 -0.0605139 0.353212 -0.139956 -0.120812 0.353212 -0.139933 -0.120812 -0.000374177 0.376657 0.000121685 1.29369e-007 0.29415 -2.35009e-007 -29.9496 -47.0519 -21.0931 -12.817 -1.44402 29.9912 -56.3843 -7.15387 2.70553 1.30972 2.54684 -6.5173 8.82781e-032 -3.18055e-015 1.59028e-015 -0 -3.18055e-015 -0 -0 -3.18055e-015 -0 -0 -3.18055e-015 -0 2.38542e-015 -3.18055e-015 3.18055e-015 8.82781e-032 -3.18055e-015 1.59028e-015 -7.95139e-016 -3.18055e-015 1.59028e-015 2.38542e-015 -3.18055e-015 3.18055e-015 8.82781e-032 -3.18055e-015 1.59028e-015 -7.95139e-016 -3.18055e-015 1.59028e-015 -0 -3.18055e-015 -0 2.38542e-015 -3.18055e-015 3.18055e-015 8.82781e-032 -3.18055e-015 1.59028e-015 -7.95139e-016 -3.18055e-015 1.59028e-015 2.38542e-015 -3.18055e-015 3.18055e-015 8.82781e-032 -3.18055e-015 1.59028e-015 -7.95139e-016 -3.18055e-015 1.59028e-015 30.212 -47.2087 21.5536 13.391 -1.68448 -29.2638 54.1243 -7.97289 -3.86684 -1.28966 2.73798 6.42948 -4.11009e-007 -1.1791e-006 -1.13526e-006 9.31351e-007 -1.09142e-006 3.49347e-006 -2.38542e-015 -1.27222e-014 1.59028e-015 -1.59028e-015 0 -1.59028e-015 -4.11009e-007 -1.1791e-006 -1.13526e-006 9.31351e-007 -1.09142e-006 3.49347e-006 7.95139e-016 -6.36111e-015 -1.59028e-015 -4.11009e-007 -1.1791e-006 -1.13526e-006 9.31351e-007 -1.09142e-006 3.49347e-006 7.95139e-016 -6.36111e-015 -1.59028e-015 -1.59028e-015 0 -1.59028e-015 -4.11009e-007 -1.1791e-006 -1.13526e-006 9.31351e-007 -1.09142e-006 3.49347e-006 7.95139e-016 -6.36111e-015 -1.59028e-015 -4.11009e-007 -1.1791e-006 -1.13526e-006 9.31351e-007 -1.09142e-006 3.49347e-006 7.95139e-016 -6.36111e-015 -1.59028e-015 142.026 -39.2925 160.083 129.829 69.2085 -129.652 5.23339 -3.35737 12.4285 -142.028 -39.2732 -160.11 -129.777 69.1709 129.582 -5.23079 -3.35321 -12.4391 
0.694249 37.965 7.4192 0 29.1148 -0 0.177182 -0.358374 -0.0578 0.354012 -0.716955 -0.114494 0.354012 -0.716963 -0.114494 7.52838e-007 0.75411 6.61072e-009 -3.60731e-008 0.58843 -1.72643e-008 -30.0737 -46.7815 -20.6639 -12.817 -1.44402 29.9912 -55.9413 -7.31469 2.70641 2.25027 2.84106 -4.92718 1.11931e-007 -8.65905e-007 -5.2587e-007 8.82781e-032 3.18055e-015 -1.59028e-015 -7.95139e-016 -6.36111e-015 -3.18055e-015 -7.95139e-016 -3.18055e-015 3.18055e-015 1.11931e-007 -8.65905e-007 -5.2587e-007 -1.76556e-031 -3.18055e-015 -3.18055e-015 -1.76556e-031 -3.18055e-015 -3.18055e-015 1.11931e-007 -8.65905e-007 -5.2587e-007 -1.76556e-031 -3.18055e-015 -3.18055e-015 -1.76556e-031 -3.18055e-015 -3.18055e-015 -7.95139e-016 -3.18055e-015 3.18055e-015 1.11931e-007 -8.65905e-007 -5.2587e-007 -1.76556e-031 -3.18055e-015 -3.18055e-015 -1.76556e-031 -3.18055e-015 -3.18055e-015 1.11931e-007 -8.65905e-007 -5.2587e-007 -1.76556e-031 -3.18055e-015 -3.18055e-015 -1.76556e-031 -3.18055e-015 -3.18055e-015 30.0877 -46.9459 20.9622 13.391 -1.68447 -29.2638 53.7753 -8.09754 -3.88983 -2.26858 3.02698 4.9015 -2.03208e-007 -3.07196e-006 6.59076e-007 -7.95139e-016 0 -0 -4.1161e-007 -1.1775e-006 -1.13641e-006 -7.95139e-016 -9.54166e-015 -0 -2.03208e-007 -3.07196e-006 6.59076e-007 -0 0 1.59028e-015 -4.1161e-007 -1.1775e-006 -1.13641e-006 -2.03208e-007 -3.07196e-006 6.59076e-007 -0 0 1.59028e-015 -4.1161e-007 -1.1775e-006 -1.13641e-006 -7.95139e-016 -9.54166e-015 -0 -2.03208e-007 -3.07196e-006 6.59076e-007 -0 0 1.59028e-015 -4.1161e-007 -1.1775e-006 -1.13641e-006 -2.03208e-007 -3.07196e-006 6.59076e-007 -0 0 1.59028e-015 -4.1161e-007 -1.1775e-006 -1.13641e-006 141.541 -39.3553 159.44 131.009 68.7507 -130.687 5.40968 -3.49273 11.9906 -141.543 -39.336 -159.468 -130.956 68.7126 130.616 -5.40741 -3.48913 -12.0019 
0.694264 37.6548 7.56153 0 28.1712 -0 0.177778 -0.647049 -0.0550966 0.354968 -1.29427 -0.108195 0.354968 -1.29427 -0.108196 4.21992e-005 1.13132 -1.64036e-005 8.62466e-008 0.882837 -4.14209e-008 -30.2005 -46.5117 -20.2358 -12.817 -1.44401 29.9912 -55.498 -7.47553 2.70854 3.18618 3.16255 -3.33539 -8.82781e-032 -6.36111e-015 -7.95139e-016 5.45666e-007 8.1257e-007 2.84903e-006 -1.59028e-015 0 -2.38542e-015 7.95139e-016 3.18055e-015 -7.95139e-016 3.97569e-015 -2.54444e-014 3.18055e-015 5.45666e-007 8.1257e-007 2.84903e-006 -3.53113e-031 6.36111e-015 3.18055e-015 3.97569e-015 -2.54444e-014 3.18055e-015 5.45666e-007 8.1257e-007 2.84903e-006 -3.53113e-031 6.36111e-015 3.18055e-015 7.95139e-016 3.18055e-015 -7.95139e-016 3.97569e-015 -2.54444e-014 3.18055e-015 5.45666e-007 8.1257e-007 2.84903e-006 -3.53113e-031 6.36111e-015 3.18055e-015 3.97569e-015 -2.54444e-014 3.18055e-015 5.45666e-007 8.1257e-007 2.84903e-006 -3.53113e-031 6.36111e-015 3.18055e-015 29.9677 -46.6821 20.3744 13.391 -1.68446 -29.2638 53.4261 -8.22207 -3.91361 -3.24341 3.34318 3.37239 7.95139e-016 -6.36111e-015 3.97569e-015 -4.29231e-006 2.82453e-006 2.18912e-006 8.82781e-032 6.36111e-015 -7.95139e-016 7.95139e-016 -6.36111e-015 3.18055e-015 5.56597e-015 3.18055e-015 6.36111e-015 -4.29231e-006 2.82453e-006 2.18912e-006 -7.95139e-016 3.18055e-015 -1.59028e-015 5.56597e-015 3.18055e-015 6.36111e-015 -4.29231e-006 2.82453e-006 2.18912e-006 -7.95139e-016 3.18055e-015 -1.59028e-015 7.95139e-016 -6.36111e-015 3.18055e-015 5.56597e-015 3.18055e-015 6.36111e-015 -4.29231e-006 2.82453e-006 2.18912e-006 -7.95139e-016 3.18055e-015 -1.59028e-015 5.56597e-015 3.18055e-015 6.36111e-015 -4.29231e-006 2.82453e-006 2.18912e-006 -7.95139e-016 3.18055e-015 -1.59028e-015 141.052 -39.4128 158.797 132.141 68.2844 -131.673 5.58474 -3.6297 11.5537 -141.055 -39.3935 -158.825 -132.088 68.2458 131.602 -5.5828 -3.62659 -11.5656 
0.69428 37.344 7.70329 0 27.2269 -0 0.178397 -0.935943 -0.0523908 0.356009 -1.87207 -0.101886 0.356009 -1.87207 -0.101887 -3.40596e-005 1.50944 9.32348e-006 9.31101e-008 1.17738 2.06339e-008 -30.3293 -46.242 -19.8083 -12.817 -1.44401 29.9912 -55.0544 -7.63637 2.71194 4.11623 3.51105 -1.74315 1.76556e-031 -6.36111e-015 1.59028e-015 -7.95139e-016 -6.36111e-015 2.38542e-015 -1.59028e-015 -3.18055e-015 -0 1.76556e-031 -6.36111e-015 1.59028e-015 1.59028e-015 -6.36111e-015 6.36111e-015 -0 0 2.38542e-015 -0 0 1.59028e-015 1.59028e-015 -6.36111e-015 6.36111e-015 -0 0 2.38542e-015 -0 0 1.59028e-015 1.76556e-031 -6.36111e-015 1.59028e-015 1.59028e-015 -6.36111e-015 6.36111e-015 -0 0 2.38542e-015 -0 0 1.59028e-015 1.59028e-015 -6.36111e-015 6.36111e-015 -0 0 2.38542e-015 -0 0 1.59028e-015 29.8518 -46.417 19.7898 13.391 -1.68447 -29.2638 53.0767 -8.34645 -3.93817 -4.21298 3.68635 1.84337 9.10906e-007 -1.84369e-006 4.10816e-006 8.55804e-007 3.09238e-006 1.65577e-006 -1.59028e-015 9.54166e-015 -3.18055e-015 7.95139e-016 6.36111e-015 -7.95139e-016 9.10906e-007 -1.84369e-006 4.10816e-006 8.55804e-007 3.09238e-006 1.65577e-006 4.41391e-031 6.36111e-015 -3.97569e-015 9.10906e-007 -1.84369e-006 4.10816e-006 8.55804e-007 3.09238e-006 1.65577e-006 4.41391e-031 6.36111e-015 -3.97569e-015 7.95139e-016 6.36111e-015 -7.95139e-016 9.10906e-007 -1.84369e-006 4.10816e-006 8.55804e-007 3.09238e-006 1.65577e-006 4.41391e-031 6.36111e-015 -3.97569e-015 9.10906e-007 -1.84369e-006 4.10816e-006 8.55804e-007 3.09238e-006 1.65577e-006 4.41391e-031 6.36111e-015 -3.97569e-015 140.561 -39.4649 158.153 133.228 67.8101 -132.614 5.75853 -3.76822 11.1177 -140.564 -39.4458 -158.181 -133.174 67.7711 132.542 -5.75693 -3.76564 -11.1302 
